<svg width="24" height="24" viewBox="0 0 24 24" fill="none" xmlns="http://www.w3.org/2000/svg">
<g clip-path="url(#clip0_1512_661)">
<path d="M11.84 8.56642C11.2863 8.56642 10.7449 8.73064 10.2844 9.03831C9.82399 9.34598 9.4651 9.78328 9.25318 10.2949C9.04125 10.8065 8.9858 11.3695 9.09384 11.9127C9.20188 12.4558 9.46855 12.9547 9.86014 13.3463C10.2517 13.7379 10.7506 14.0046 11.2938 14.1126C11.8369 14.2207 12.3999 14.1652 12.9116 13.9533C13.4232 13.7414 13.8605 13.3825 14.1682 12.922C14.4758 12.4616 14.64 11.9202 14.64 11.3664C14.6414 10.9984 14.5698 10.6337 14.4296 10.2933C14.2894 9.95304 14.0832 9.64385 13.8229 9.38358C13.5626 9.12331 13.2534 8.91711 12.9131 8.77687C12.5728 8.63662 12.2081 8.5651 11.84 8.56642Z" fill="white"/>
<path fill-rule="evenodd" clip-rule="evenodd" d="M15.69 1.51562H8C6.4087 1.51562 4.88258 2.14777 3.75736 3.27298C2.63214 4.3982 2 5.92433 2 7.51562V15.2056C2 16.7969 2.63214 18.323 3.75736 19.4483C4.88258 20.5735 6.4087 21.2056 8 21.2056H15.69C17.2813 21.2056 18.8074 20.5735 19.9326 19.4483C21.0579 18.323 21.69 16.7969 21.69 15.2056V7.51562C21.69 5.92433 21.0579 4.3982 19.9326 3.27298C18.8074 2.14777 17.2813 1.51563 15.69 1.51562ZM11.84 15.6556C10.6996 15.653 9.6069 15.1974 8.80237 14.3891C7.99784 13.5808 7.54735 12.4861 7.55 11.3456C7.55265 10.2052 8.00823 9.11253 8.81651 8.30799C9.62479 7.50346 10.7196 7.05297 11.86 7.05562C12.4247 7.05694 12.9836 7.16946 13.5048 7.38677C14.026 7.60408 14.4993 7.92192 14.8976 8.32214C15.296 8.72236 15.6116 9.19712 15.8265 9.71933C16.0414 10.2415 16.1513 10.8009 16.15 11.3656C16.1487 11.9303 16.0362 12.4892 15.8189 13.0104C15.6015 13.5316 15.2837 14.0049 14.8835 14.4033C14.4833 14.8016 14.0085 15.1173 13.4863 15.3321C12.9641 15.547 12.4047 15.6569 11.84 15.6556ZM15.575 6.42762C15.6588 6.62714 15.8 6.79722 15.9808 6.91618C16.1615 7.03514 16.3736 7.09761 16.59 7.09562C16.7318 7.09562 16.8723 7.06769 17.0033 7.01342C17.1343 6.95914 17.2534 6.87959 17.3537 6.7793C17.454 6.67901 17.5335 6.55995 17.5878 6.42892C17.6421 6.29789 17.67 6.15745 17.67 6.01562C17.6715 5.85383 17.6369 5.69373 17.5688 5.54695C17.5007 5.40018 17.4008 5.27041 17.2763 5.16706C17.1518 5.06371 17.0058 4.98937 16.849 4.94945C16.6922 4.90952 16.5285 4.905 16.3697 4.93623C16.2109 4.96745 16.0611 5.03363 15.9311 5.12996C15.8011 5.22629 15.6942 5.35035 15.6181 5.49315C15.542 5.63595 15.4987 5.7939 15.4912 5.95553C15.4837 6.11716 15.5124 6.27843 15.575 6.42762Z" fill="white"/>
</g>
<defs>
<clipPath id="clip0_1512_661">
<rect width="24" height="24" fill="white"/>
</clipPath>
</defs>
</svg>
