<svg width="50" height="55" viewBox="0 0 50 55" fill="none" xmlns="http://www.w3.org/2000/svg">
<path d="M29 55C25.5833 55 22.375 54.2188 19.375 52.6562C16.375 51.0938 13.9167 48.9167 12 46.125L0 28.5L1.1875 27.3125C2.02083 26.4375 3.05208 25.9375 4.28125 25.8125C5.51042 25.6875 6.625 25.9792 7.625 26.6875L14.5 31.4375V7.5C14.5 6.79167 14.7396 6.19792 15.2188 5.71875C15.6979 5.23958 16.2917 5 17 5C17.7083 5 18.3021 5.23958 18.7812 5.71875C19.2604 6.19792 19.5 6.79167 19.5 7.5V41.0625L10.25 34.625L16.1875 43.25C17.6458 45.375 19.5 47.0312 21.75 48.2188C24 49.4062 26.4167 50 29 50C33.2917 50 36.9479 48.4896 39.9688 45.4688C42.9896 42.4479 44.5 38.7917 44.5 34.5V10C44.5 9.29167 44.7396 8.69792 45.2188 8.21875C45.6979 7.73958 46.2917 7.5 47 7.5C47.7083 7.5 48.3021 7.73958 48.7812 8.21875C49.2604 8.69792 49.5 9.29167 49.5 10V34.5C49.5 40.2083 47.5104 45.0521 43.5312 49.0312C39.5521 53.0104 34.7083 55 29 55ZM24.5 27.5V2.5C24.5 1.79167 24.7396 1.19792 25.2188 0.71875C25.6979 0.239583 26.2917 0 27 0C27.7083 0 28.3021 0.239583 28.7812 0.71875C29.2604 1.19792 29.5 1.79167 29.5 2.5V27.5H24.5ZM34.5 27.5V5C34.5 4.29167 34.7396 3.69792 35.2188 3.21875C35.6979 2.73958 36.2917 2.5 37 2.5C37.7083 2.5 38.3021 2.73958 38.7812 3.21875C39.2604 3.69792 39.5 4.29167 39.5 5V27.5H34.5Z" fill="#00386F"/>
</svg>
