<svg width="91" height="72" viewBox="0 0 91 72" fill="none" xmlns="http://www.w3.org/2000/svg">
<path d="M6.25625 49.2545C4.17083 47.1818 2.60677 45.0545 1.56406 42.8727C0.521354 40.6909 0 38.4545 0 36.1636C0 28.8545 4.40781 22.6364 13.2234 17.5091C22.0391 12.3818 32.7979 9.81818 45.5 9.81818H46.4953L37.3953 4.58182L45.3578 0L68.1078 13.0909L45.3578 26.1818L37.3953 21.6L46.4953 16.3636H45.5C36.0208 16.3636 27.9635 18.2864 21.3281 22.1318C14.6927 25.9773 11.375 30.6545 11.375 36.1636C11.375 37.5818 11.6594 38.9727 12.2281 40.3364C12.7969 41.7 13.65 43.0364 14.7875 44.3455L6.25625 49.2545ZM45.6422 72L22.8922 58.9091L45.6422 45.8182L53.6047 50.4L44.5047 55.6364H45.5C54.9792 55.6364 63.0365 53.7136 69.6719 49.8682C76.3073 46.0227 79.625 41.3455 79.625 35.8364C79.625 34.4182 79.3406 33.0273 78.7719 31.6636C78.2031 30.3 77.35 28.9636 76.2125 27.6545L84.7438 22.7455C86.8292 24.8182 88.3932 26.9455 89.4359 29.1273C90.4786 31.3091 91 33.5455 91 35.8364C91 43.1455 86.5922 49.3636 77.7766 54.4909C68.9609 59.6182 58.2021 62.1818 45.5 62.1818H44.5047L53.6047 67.4182L45.6422 72Z" fill="#FD742C"/>
</svg>
